<svg width="16" height="17" viewBox="0 0 16 17" fill="none" xmlns="http://www.w3.org/2000/svg">
<path d="M3.58288 12.8233L3.58206 12.8228C1.84855 11.7088 0.75 9.6475 0.75 7.39935C0.75 3.74648 3.79946 0.75 7.60526 0.75C11.4111 0.75 14.4605 3.74653 14.4605 7.39856C14.4605 9.87797 13.1227 12.1273 11.0807 13.1335C9.02791 14.1437 8.15119 15.0207 7.69675 15.7262C7.66373 15.7774 7.63353 15.8269 7.60582 15.8742C7.5784 15.8273 7.54853 15.7783 7.51588 15.7275C7.06249 15.0221 6.18718 14.1458 4.13663 13.1368C3.94606 13.0429 3.76117 12.9382 3.58288 12.8233ZM7.32857 16.406C7.32856 16.4059 7.32916 16.405 7.33038 16.4032C7.32918 16.4051 7.32858 16.406 7.32857 16.406ZM7.881 16.4041C7.88218 16.4058 7.88275 16.4067 7.88273 16.4067C7.88272 16.4068 7.88214 16.4059 7.881 16.4041ZM7.60526 11.116C9.68592 11.116 11.3974 9.48135 11.3974 7.43651C11.3974 5.39167 9.68592 3.75698 7.60526 3.75698C5.5246 3.75698 3.81316 5.39167 3.81316 7.43651C3.81316 9.48135 5.5246 11.116 7.60526 11.116Z" stroke="#391F5C" stroke-width="1.5"/>
</svg>
