<svg width="10" height="10" viewBox="0 0 10 10" fill="none" xmlns="http://www.w3.org/2000/svg">
<path d="M5 10C2.2385 10 0 7.7615 0 5C0 2.2385 2.2385 0 5 0C7.7615 0 10 2.2385 10 5C10 7.7615 7.7615 10 5 10ZM4.652 8.233C4.967 8.233 5.318 8.089 5.75 7.504L6.2055 6.894C6.21882 6.87617 6.22843 6.85585 6.23379 6.83425C6.23914 6.81265 6.24012 6.7902 6.23668 6.76821C6.23323 6.74623 6.22542 6.72515 6.21372 6.70622C6.20201 6.6873 6.18663 6.6709 6.1685 6.658C6.13014 6.63092 6.08312 6.619 6.03649 6.62454C5.98987 6.63008 5.94694 6.65268 5.916 6.688L5.1785 7.5275C5.16154 7.54679 5.13885 7.56015 5.11375 7.56564C5.08866 7.57113 5.06247 7.56845 5.039 7.558C5.01622 7.548 4.99771 7.53028 4.98673 7.50795C4.97575 7.48563 4.97301 7.46015 4.979 7.436L5.908 3.713C5.91827 3.67242 5.91816 3.62992 5.90769 3.58939C5.89723 3.54887 5.87673 3.51163 5.8481 3.4811C5.81946 3.45057 5.78361 3.42774 5.74384 3.4147C5.70406 3.40167 5.66165 3.39885 5.6205 3.4065L3.9455 3.713C3.91257 3.71905 3.88206 3.73441 3.8576 3.75728C3.83314 3.78015 3.81575 3.80955 3.8075 3.842L3.7645 4.009C3.75977 4.02749 3.75933 4.04683 3.76323 4.06551C3.76712 4.0842 3.77525 4.10175 3.78698 4.11681C3.79871 4.13187 3.81373 4.14404 3.8309 4.1524C3.84806 4.16075 3.86691 4.16506 3.886 4.165H4.751L4.013 7.126C3.986 7.243 3.941 7.441 3.941 7.585C3.941 7.918 4.139 8.233 4.652 8.233ZM5.567 2.965C5.918 2.965 6.188 2.758 6.26 2.443C6.278 2.371 6.287 2.29 6.287 2.236C6.287 1.984 6.089 1.75 5.72 1.75C5.369 1.75 5.099 1.957 5.027 2.272C5.01029 2.33977 5.00124 2.40921 5 2.479C5 2.731 5.198 2.965 5.567 2.965Z" fill="black"/>
</svg>
