<svg width="321" height="18" viewBox="0 0 321 18" fill="none" xmlns="http://www.w3.org/2000/svg">
<path d="M152.772 9.058C152.772 8.03133 152.963 7.14 153.346 6.384C153.738 5.61867 154.298 5.026 155.026 4.606C155.754 4.186 156.617 3.976 157.616 3.976C158.614 3.976 159.478 4.186 160.206 4.606C160.934 5.026 161.494 5.61867 161.886 6.384C162.287 7.14 162.488 8.02667 162.488 9.044C162.488 10.08 162.287 10.9807 161.886 11.746C161.494 12.502 160.934 13.0947 160.206 13.524C159.478 13.944 158.614 14.154 157.616 14.154C156.617 14.154 155.754 13.944 155.026 13.524C154.307 13.0947 153.752 12.4973 153.36 11.732C152.968 10.9667 152.772 10.0753 152.772 9.058ZM155.054 9.058C155.054 10.0753 155.264 10.8733 155.684 11.452C156.113 12.0213 156.757 12.306 157.616 12.306C158.456 12.306 159.095 12.0213 159.534 11.452C159.972 10.8733 160.192 10.0753 160.192 9.058C160.192 8.03133 159.972 7.238 159.534 6.678C159.104 6.10867 158.465 5.824 157.616 5.824C156.757 5.824 156.113 6.10867 155.684 6.678C155.264 7.238 155.054 8.03133 155.054 9.058ZM164.041 14V8.778C164.041 8.47 164.031 8.15733 164.013 7.84C164.003 7.52267 163.98 7.21 163.943 6.902H165.973L166.211 8.974H165.889C165.982 8.47 166.131 8.05467 166.337 7.728C166.551 7.40133 166.813 7.15867 167.121 7C167.438 6.84133 167.797 6.762 168.199 6.762C168.376 6.762 168.516 6.77133 168.619 6.79C168.721 6.79933 168.824 6.82267 168.927 6.86L168.913 8.722C168.717 8.638 168.549 8.58667 168.409 8.568C168.278 8.54 168.11 8.526 167.905 8.526C167.513 8.526 167.186 8.60067 166.925 8.75C166.673 8.89933 166.481 9.11867 166.351 9.408C166.229 9.69733 166.169 10.0473 166.169 10.458V14H164.041Z" fill="#CA9757"/>
<path d="M184 9H320" stroke="#CA9757" stroke-linecap="round" stroke-dasharray="2 2"/>
<path d="M1 9H137" stroke="#CA9757" stroke-linecap="round" stroke-dasharray="2 2"/>
</svg>
