<svg width="16" height="18" viewBox="0 0 16 18" fill="none" xmlns="http://www.w3.org/2000/svg">
<path d="M14.5275 2.48239L10.4062 1.22417C9.75217 1.02448 9.0703 0.922852 8.38436 0.922852C7.69842 0.922852 7.01655 1.02448 6.36249 1.22417L2.24122 2.48239C1.38006 2.74531 0.794617 3.51761 0.794617 4.3907V11.3079C0.794617 12.5796 1.41974 13.7756 2.47871 14.53L6.51618 17.4062C7.05743 17.7918 7.71208 17.9998 8.38436 17.9998C9.05664 17.9998 9.71129 17.7918 10.2525 17.4062L14.29 14.53C15.349 13.7756 15.9741 12.5796 15.9741 11.3079V4.3907C15.9741 3.51761 15.3887 2.74531 14.5275 2.48239ZM11.5556 8.51795L8.14042 11.8198C7.73623 12.2105 7.08093 12.2105 6.67677 11.8198L5.21309 10.4047C4.8089 10.0139 4.8089 9.3804 5.21309 8.98966C5.61728 8.5989 6.27258 8.5989 6.67674 8.98966L7.40856 9.69719L10.0919 7.1029C10.4961 6.71213 11.1514 6.71213 11.5556 7.1029C11.9598 7.49363 11.9598 8.12718 11.5556 8.51795Z" fill="#391F5C"/>
</svg>
