<svg width="16" height="16" viewBox="0 0 16 16" fill="none" xmlns="http://www.w3.org/2000/svg">
<path d="M12.6382 15.2393C12.6533 15.2393 12.6707 15.2414 12.6815 15.2393C13.2789 15.2393 13.7638 14.7544 13.7638 14.157C13.7638 13.9773 13.7205 13.8064 13.6425 13.6592L12.7314 9.10305L15.5689 6.26551C15.8784 5.95597 15.9715 5.49069 15.8026 5.08588C15.6338 4.68106 15.2399 4.41707 14.8027 4.41707H11.1426L9.27909 0.685799C8.9111 -0.0479357 7.70985 -0.0479357 7.34197 0.685799L5.47629 4.41728H1.81623C1.37906 4.41728 0.982971 4.68137 0.816278 5.08608C0.649585 5.49079 0.74272 5.95617 1.05003 6.26572L3.88757 9.10326L2.92008 13.9451C2.83131 14.3845 3.02398 14.8346 3.40495 15.0728C3.78805 15.313 4.26854 15.2957 4.63003 15.023L8.30956 12.2633L11.9891 15.023C12.1816 15.1657 12.411 15.2393 12.6382 15.2393Z" fill="#CA9757"/>
</svg>
