<svg width="20" height="20" viewBox="0 0 20 20" fill="none" xmlns="http://www.w3.org/2000/svg">
<path opacity="0.8" d="M10.6603 0.518192L10.6303 0.588199L7.72999 7.31893H4.87968C4.19961 7.31893 3.55954 7.44894 2.95947 7.70897L4.70966 3.52852L4.74967 3.43851L4.80967 3.27849C4.83968 3.20848 4.85968 3.14848 4.88968 3.09847C6.19982 0.0681431 7.67998 -0.621931 10.6603 0.518192Z" fill="#391F5C"/>
<path d="M16.0523 7.51882C15.6023 7.38881 15.1322 7.3188 14.6422 7.3188H7.73145L10.6318 0.588074L10.6618 0.518066C10.8018 0.568072 10.9518 0.638079 11.1018 0.688085L13.312 1.61819C14.5422 2.12824 15.4023 2.6583 15.9323 3.29837C16.0223 3.41838 16.1023 3.52839 16.1824 3.65841C16.2724 3.79842 16.3424 3.93844 16.3824 4.08845C16.4224 4.17846 16.4524 4.25847 16.4724 4.34848C16.7324 5.19857 16.5724 6.22868 16.0523 7.51882Z" fill="#391F5C"/>
<path opacity="0.4" d="M19.5221 12.1991V14.1493C19.5221 14.3493 19.5121 14.5494 19.5021 14.7394C19.3121 18.2398 17.3618 20 13.6614 20H5.86063C5.61061 20 5.38058 19.9799 5.15056 19.9499C1.97021 19.7399 0.270029 18.0397 0.0500053 14.8594C0.0200021 14.6194 0 14.3893 0 14.1493V12.1991C0 10.1889 1.22013 8.45871 2.96032 7.70864C3.56038 7.44862 4.20045 7.3186 4.88053 7.3186H14.6415C15.1316 7.3186 15.6017 7.38861 16.0517 7.51862C18.0519 8.12867 19.5221 9.98887 19.5221 12.1991Z" fill="#391F5C"/>
<path opacity="0.6" d="M4.71051 3.52832L2.96032 7.70876C1.22013 8.45886 0 10.189 0 12.1993V9.26895C0 6.42863 2.02022 4.05838 4.71051 3.52832Z" fill="#391F5C"/>
<path opacity="0.6" d="M19.5212 9.2689V12.1992C19.5212 9.98898 18.051 8.12878 16.0508 7.51875C16.5708 6.22861 16.7309 5.1985 16.4708 4.34841C16.4508 4.2584 16.4208 4.17839 16.3808 4.08838C18.251 5.05848 19.5212 7.0287 19.5212 9.2689Z" fill="#391F5C"/>
<path d="M12.2609 14.7497H7.26033C6.85029 14.7497 6.51025 14.4096 6.51025 13.9996C6.51025 13.5895 6.85029 13.2495 7.26033 13.2495H12.2609C12.6709 13.2495 13.011 13.5895 13.011 13.9996C13.011 14.4096 12.6709 14.7497 12.2609 14.7497Z" fill="#391F5C"/>
</svg>
